<?xml version="1.0" encoding="utf-8"?>
<!-- Generator: Adobe Illustrator 18.0.0, SVG Export Plug-In . SVG Version: 6.00 Build 0)  -->
<!DOCTYPE svg PUBLIC "-//W3C//DTD SVG 1.1//EN" "http://www.w3.org/Graphics/SVG/1.1/DTD/svg11.dtd">
<svg version="1.1" id="Camada_1" xmlns="http://www.w3.org/2000/svg" xmlns:xlink="http://www.w3.org/1999/xlink" x="0px" y="0px"
	 viewBox="0 0 434.9 348" enable-background="new 0 0 434.9 348" xml:space="preserve">
<g>
	<path fill="#333333" d="M63.1,231.8c0,3.1-1.1,5.5-3.2,7.2s-5.1,2.5-9,2.5h-3.5v11.9h-3.8v-30.5h8.1
		C59.3,222.9,63.1,225.9,63.1,231.8z M47.4,238.2h3.1c3,0,5.2-0.5,6.6-1.5c1.4-1,2-2.6,2-4.7c0-2-0.6-3.4-1.9-4.4
		c-1.3-1-3.2-1.5-5.9-1.5h-3.9V238.2z"/>
	<path fill="#333333" d="M72.4,230.5v14.7c0,1.8,0.4,3.2,1.2,4.1c0.8,0.9,2.1,1.3,3.8,1.3c2.3,0,4.1-0.7,5.1-2
		c1.1-1.3,1.6-3.4,1.6-6.3v-11.9H88v22.9h-3.1l-0.5-3h-0.2c-0.7,1.1-1.6,1.9-2.9,2.5c-1.3,0.6-2.7,0.9-4.4,0.9c-2.8,0-4.8-0.7-6.2-2
		c-1.4-1.3-2.1-3.4-2.1-6.3v-15H72.4z"/>
	<path fill="#333333" d="M110,253.3H93.3v-2.5l12.3-17.5H94v-2.9h15.7v2.8l-12.1,17.2H110V253.3z"/>
	<path fill="#333333" d="M130.1,253.3h-16.7v-2.5l12.3-17.5h-11.6v-2.9h15.7v2.8l-12.1,17.2h12.4V253.3z"/>
	<path fill="#333333" d="M139.1,253.3h-3.7v-32.4h3.7V253.3z"/>
	<path fill="#333333" d="M156.1,253.7c-3.4,0-6.1-1-8.1-3.1c-2-2.1-2.9-4.9-2.9-8.6c0-3.7,0.9-6.6,2.7-8.8s4.3-3.3,7.4-3.3
		c2.9,0,5.2,0.9,6.9,2.8c1.7,1.9,2.6,4.4,2.6,7.5v2.3H149c0.1,2.6,0.7,4.6,2,5.9c1.3,1.3,3,2,5.3,2c1.2,0,2.4-0.1,3.5-0.3
		c1.1-0.2,2.4-0.6,3.9-1.3v3.3c-1.3,0.5-2.5,0.9-3.6,1.1C158.9,253.6,157.6,253.7,156.1,253.7z M155.2,233.1c-1.8,0-3.2,0.6-4.2,1.7
		c-1,1.2-1.7,2.8-1.9,4.8h11.6c0-2.1-0.5-3.8-1.5-4.9C158.3,233.7,156.9,233.1,155.2,233.1z"/>
	<path fill="#333333" d="M185.3,247c0,2.1-0.8,3.8-2.4,5c-1.6,1.2-3.8,1.8-6.7,1.8c-3,0-5.4-0.5-7.2-1.4v-3.4
		c2.5,1.2,4.9,1.8,7.3,1.8c1.9,0,3.3-0.3,4.1-0.9c0.9-0.6,1.3-1.4,1.3-2.5c0-0.9-0.4-1.7-1.2-2.3s-2.3-1.3-4.4-2.1
		c-2.2-0.8-3.7-1.5-4.5-2.1c-0.9-0.6-1.5-1.3-1.9-2c-0.4-0.7-0.6-1.6-0.6-2.7c0-1.9,0.8-3.4,2.3-4.4c1.5-1.1,3.6-1.6,6.3-1.6
		c2.6,0,5,0.5,7.3,1.5l-1.3,3c-2.3-1-4.4-1.5-6.3-1.5c-1.6,0-2.7,0.2-3.5,0.7c-0.8,0.5-1.2,1.2-1.2,2c0,0.8,0.3,1.5,1,2.1
		c0.7,0.5,2.3,1.3,4.9,2.3c1.9,0.7,3.3,1.4,4.2,2c0.9,0.6,1.6,1.3,2,2.1C185.1,245,185.3,245.9,185.3,247z"/>
	<path fill="#333333" d="M200.6,245.4c0-1.8,0.5-3.4,1.4-4.7s2.7-2.8,5.2-4.2c-1.1-1.2-1.8-2.2-2.3-2.9c-0.5-0.7-0.8-1.4-1.1-2.2
		c-0.2-0.7-0.4-1.5-0.4-2.3c0-2.1,0.7-3.7,2.1-4.9s3.3-1.8,5.8-1.8c2.3,0,4.1,0.6,5.4,1.8c1.3,1.2,2,2.8,2,4.8
		c0,1.5-0.5,2.9-1.4,4.2s-2.5,2.5-4.7,3.8l8.2,7.9c1.3-1.5,2.3-3.8,3-6.8h3.8c-1,4-2.4,7-4.4,9.2l6.2,6.1h-5.1l-3.7-3.6
		c-1.6,1.4-3.2,2.4-4.9,3.1c-1.7,0.6-3.6,0.9-5.6,0.9c-3,0-5.3-0.7-7-2.2S200.6,248,200.6,245.4z M210.3,250.4c3.2,0,5.8-1,8-3
		l-8.9-8.6c-1.9,1.2-3.2,2.2-3.9,3.1s-1,2.1-1,3.3c0,1.6,0.5,2.8,1.6,3.8S208.6,250.4,210.3,250.4z M207.1,229
		c0,0.9,0.2,1.8,0.7,2.7c0.5,0.9,1.3,1.9,2.4,3c1.7-1,2.9-1.9,3.6-2.8c0.7-0.9,1.1-1.9,1.1-3c0-1.1-0.4-1.9-1.1-2.5
		c-0.7-0.6-1.6-1-2.7-1c-1.2,0-2.2,0.3-2.9,1C207.5,227.1,207.1,228,207.1,229z"/>
	<path fill="#333333" d="M261.8,253.3h-17v-30.5h17v3.4h-13.2v9.5H261v3.3h-12.4V250h13.2V253.3z"/>
	<path fill="#333333" d="M282.9,247c0,2.1-0.8,3.8-2.4,5c-1.6,1.2-3.8,1.8-6.7,1.8c-3,0-5.4-0.5-7.2-1.4v-3.4
		c2.5,1.2,4.9,1.8,7.3,1.8c1.9,0,3.3-0.3,4.1-0.9c0.9-0.6,1.3-1.4,1.3-2.5c0-0.9-0.4-1.7-1.2-2.3s-2.3-1.3-4.4-2.1
		c-2.2-0.8-3.7-1.5-4.5-2.1c-0.9-0.6-1.5-1.3-1.9-2c-0.4-0.7-0.6-1.6-0.6-2.7c0-1.9,0.8-3.4,2.3-4.4c1.5-1.1,3.6-1.6,6.3-1.6
		c2.6,0,5,0.5,7.3,1.5l-1.3,3c-2.3-1-4.4-1.5-6.3-1.5c-1.6,0-2.7,0.2-3.5,0.7c-0.8,0.5-1.2,1.2-1.2,2c0,0.8,0.3,1.5,1,2.1
		c0.7,0.5,2.3,1.3,4.9,2.3c1.9,0.7,3.3,1.4,4.2,2c0.9,0.6,1.6,1.3,2,2.1C282.7,245,282.9,245.9,282.9,247z"/>
	<path fill="#333333" d="M296.1,250.7c0.5,0,1.1,0,1.7-0.1c0.7-0.1,1.1-0.2,1.5-0.3v2.9c-0.3,0.2-0.9,0.3-1.6,0.4
		c-0.7,0.1-1.5,0.2-2.2,0.2c-4.5,0-6.7-2.4-6.7-7.1v-13.3h-3.2v-1.8l3.3-1.5l1.5-4.9h2.2v5.2h6.6v2.9h-6.6v13.2c0,1.3,0.3,2.3,0.9,3
		C294.1,250.3,294.9,250.7,296.1,250.7z"/>
	<path fill="#333333" d="M307.3,230.5v14.7c0,1.8,0.4,3.2,1.2,4.1c0.8,0.9,2.1,1.3,3.8,1.3c2.3,0,4.1-0.7,5.1-2
		c1.1-1.3,1.6-3.4,1.6-6.3v-11.9h3.8v22.9h-3.1l-0.5-3h-0.2c-0.7,1.1-1.6,1.9-2.9,2.5c-1.3,0.6-2.7,0.9-4.4,0.9
		c-2.8,0-4.8-0.7-6.2-2c-1.4-1.3-2.1-3.4-2.1-6.3v-15H307.3z"/>
	<path fill="#333333" d="M338.3,253.7c-3,0-5.3-1-6.9-3.1c-1.6-2.1-2.5-5-2.5-8.7c0-3.7,0.8-6.7,2.5-8.7c1.6-2.1,4-3.1,6.9-3.1
		c3.1,0,5.4,1.1,7.1,3.4h0.3c0-0.3-0.1-0.8-0.2-1.7c-0.1-0.8-0.1-1.4-0.1-1.7v-9.1h3.7v32.4h-3l-0.6-3.1h-0.2
		C343.8,252.6,341.4,253.7,338.3,253.7z M338.9,250.6c2.3,0,3.9-0.6,5-1.9c1-1.2,1.6-3.3,1.6-6.1V242c0-3.2-0.5-5.4-1.6-6.8
		c-1.1-1.4-2.7-2-5-2c-1.9,0-3.4,0.8-4.5,2.3c-1.1,1.5-1.6,3.7-1.6,6.6c0,2.8,0.5,5,1.6,6.4C335.4,249.9,336.9,250.6,338.9,250.6z"
		/>
	<path fill="#333333" d="M376.3,241.9c0,3.7-0.9,6.7-2.8,8.7c-1.9,2.1-4.5,3.1-7.8,3.1c-2.1,0-3.9-0.5-5.5-1.4
		c-1.6-1-2.8-2.4-3.7-4.2c-0.9-1.8-1.3-3.9-1.3-6.3c0-3.7,0.9-6.6,2.8-8.7s4.5-3.1,7.8-3.1c3.2,0,5.8,1.1,7.7,3.2
		C375.4,235.3,376.3,238.2,376.3,241.9z M359,241.9c0,2.9,0.6,5.1,1.7,6.6c1.1,1.5,2.8,2.2,5,2.2c2.2,0,3.8-0.7,5-2.2
		c1.1-1.5,1.7-3.7,1.7-6.6s-0.6-5-1.7-6.5s-2.8-2.2-5-2.2C361.2,233.2,359,236.1,359,241.9z"/>
	<path fill="#333333" d="M397.1,247c0,2.1-0.8,3.8-2.4,5c-1.6,1.2-3.8,1.8-6.7,1.8c-3,0-5.4-0.5-7.2-1.4v-3.4
		c2.5,1.2,4.9,1.8,7.3,1.8c1.9,0,3.3-0.3,4.1-0.9c0.9-0.6,1.3-1.4,1.3-2.5c0-0.9-0.4-1.7-1.2-2.3s-2.3-1.3-4.4-2.1
		c-2.2-0.8-3.7-1.5-4.5-2.1c-0.9-0.6-1.5-1.3-1.9-2c-0.4-0.7-0.6-1.6-0.6-2.7c0-1.9,0.8-3.4,2.3-4.4c1.5-1.1,3.6-1.6,6.3-1.6
		c2.6,0,5,0.5,7.3,1.5l-1.3,3c-2.3-1-4.4-1.5-6.3-1.5c-1.6,0-2.7,0.2-3.5,0.7c-0.8,0.5-1.2,1.2-1.2,2c0,0.8,0.3,1.5,1,2.1
		c0.7,0.5,2.3,1.3,4.9,2.3c1.9,0.7,3.3,1.4,4.2,2c0.9,0.6,1.6,1.3,2,2.1C396.9,245,397.1,245.9,397.1,247z"/>
</g>
<g>
	<g>
		<path d="M73.5,169.5c0,11.4-3.1,20.2-9.4,26.2c-6.2,6.1-15.2,9.1-26.8,9.1H18v-69.3h21.3c10.8,0,19.2,3,25.2,8.9
			C70.5,150.3,73.5,158.7,73.5,169.5z M64.3,169.8c0-8.8-2.2-15.5-6.5-20c-4.3-4.5-10.9-6.8-19.7-6.8H26.7v54.4h9.4
			C54.9,197.3,64.3,188.1,64.3,169.8z"/>
		<path d="M127.2,204.8H84v-7.4l16.6-18.1c2.4-2.6,4.5-4.9,6.3-7c1.9-2.1,3.5-4.2,4.8-6.2c1.3-2,2.3-4,3-6.1c0.7-2,1-4.3,1-6.7
			c0-1.9-0.3-3.5-0.8-4.9c-0.5-1.4-1.3-2.6-2.3-3.6s-2.2-1.7-3.5-2.3c-1.4-0.5-2.9-0.8-4.5-0.8c-3,0-5.7,0.6-8.1,1.8
			c-2.4,1.2-4.7,2.8-6.9,4.7l-4.8-5.6c1.3-1.1,2.6-2.2,4.1-3.2c1.5-1,3-1.9,4.7-2.6c1.7-0.7,3.4-1.3,5.3-1.7
			c1.9-0.4,3.8-0.6,5.9-0.6c3,0,5.8,0.4,8.2,1.3c2.4,0.9,4.5,2.1,6.2,3.7c1.7,1.6,3,3.5,4,5.8c0.9,2.3,1.4,4.9,1.4,7.7
			c0,2.7-0.4,5.2-1.3,7.7c-0.8,2.4-2,4.8-3.5,7.2c-1.5,2.4-3.2,4.7-5.3,7.1c-2,2.4-4.2,4.8-6.6,7.4l-13.3,14.2v0.4h32.6V204.8z"/>
		<path d="M172.9,204.8L150,144.1h-0.4c0.5,5.1,0.7,11.3,0.7,18.7v42h-8.1v-69.3h12.9l21.4,56.8h0.4l21.7-56.8h12.8v69.3h-8.6v-42.6
			c0-4.7,0.2-10.8,0.7-18.1h-0.4L180,204.8H172.9z"/>
		<path d="M255.6,204.8v-69.3h8.7V197h30.3v7.8H255.6z"/>
		<path d="M349.9,204.8l-8.3-21.5H314l-8.2,21.5H297l27.1-69.6h7.9l27,69.6H349.9z M338.9,175.6l-7.8-21l-3.3-10.4
			c-0.9,3.8-1.9,7.2-3,10.4l-7.9,21H338.9z"/>
		<path d="M368.4,135.5h19.8c9.3,0,16,1.4,20.1,4.1c4.1,2.8,6.2,7.1,6.2,13c0,4.1-1.1,7.5-3.4,10.2c-2.2,2.7-5.5,4.4-9.8,5.2v0.5
			c5.3,0.9,9.3,2.8,11.8,5.5c2.5,2.8,3.8,6.5,3.8,11c0,6.2-2.1,11-6.4,14.5c-4.2,3.5-10.1,5.2-17.7,5.2h-24.4V135.5z M377.2,165H390
			c5.4,0,9.4-0.9,11.8-2.6c2.5-1.7,3.7-4.6,3.7-8.7c0-3.8-1.4-6.5-4.1-8.2c-2.7-1.7-7-2.5-12.8-2.5h-11.5V165z M377.2,172.3v25.1h14
			c5.6,0,9.7-1.1,12.4-3.2c2.7-2.1,4-5.4,4-9.8c0-4.1-1.4-7.2-4.3-9.2c-2.8-2-7.1-3-12.8-3H377.2z"/>
	</g>
	<rect x="228.4" y="20.2" fill="#00538A" width="39.4" height="24.3"/>
	<rect x="156.4" y="8.7" fill="#00538A" width="43.3" height="51"/>
	<rect x="87.6" y="46.6" fill="#BD4613" width="39.4" height="39.4"/>
	<rect x="57.1" y="96.8" fill="#00538A" width="22" height="22"/>
	<rect x="338.4" y="70.9" fill="#00538A" width="30.8" height="39.4"/>
	<rect x="289" y="33" fill="#00538A" width="30.1" height="30.1"/>
	<rect x="212.4" y="325.1" fill="#00538A" width="15.9" height="14.2"/>
	<rect x="271.8" y="266.1" fill="#00538A" width="36.3" height="24.3"/>
	<rect x="243.1" y="291.7" fill="#00538A" width="20.6" height="26.5"/>
</g>
</svg>
